<?xml version="1.0" standalone="no"?>
<!DOCTYPE svg PUBLIC "-//W3C//DTD SVG 20010904//EN"
 "http://www.w3.org/TR/2001/REC-SVG-20010904/DTD/svg10.dtd">
<svg version="1.0" xmlns="http://www.w3.org/2000/svg"
 width="260.000000pt" height="260.000000pt" viewBox="0 0 260.000000 260.000000"
 preserveAspectRatio="xMidYMid meet">
<metadata>
Created by potrace 1.11, written by Peter Selinger 2001-2013
</metadata>
<g transform="translate(0.000000,260.000000) scale(0.100000,-0.100000)"
fill="#000000" stroke="none">
<path d="M1185 2029 c-72 -12 -158 -44 -234 -86 -83 -45 -203 -166 -254 -253
-111 -191 -125 -439 -37 -635 33 -73 95 -168 133 -204 25 -23 26 -27 26 -150
-1 -69 2 -173 6 -231 3 -58 7 -144 8 -191 2 -98 19 -132 60 -121 48 12 47 -1
33 445 -2 76 -1 137 2 135 155 -82 233 -103 382 -102 194 0 336 57 484 193 79
74 161 210 192 321 18 66 27 252 14 300 -5 19 -11 46 -14 60 -19 104 -91 228
-190 325 -66 66 -98 89 -176 127 -52 25 -117 51 -145 58 -63 15 -224 20 -290
9z"/>
</g>
</svg>
